<svg width="247" height="106" viewBox="0 0 247 106" fill="none" xmlns="http://www.w3.org/2000/svg">
<g clip-path="url(#clip0_6_48)">
<path d="M45.5339 58.733V36.1916L66.714 13.6503V62.7108H89.2181V13.6503L110.398 36.1916V105.142H89.2181V83.9262H66.714V105.142H45.5339V58.733Z" fill="white"/>
<path d="M110.398 26.9099L89.2181 4.36853L102.456 1.7166L110.398 9.67239V26.9099Z" fill="white"/>
<path d="M45.5339 24.258L66.714 4.36853L51.9774 0.429153L45.5339 7.08098V24.258Z" fill="white"/>
<path d="M45.5339 58.733V36.1916L66.714 13.6503V62.7108H89.2181V13.6503L110.398 36.1916V105.142H89.2181V83.9262H66.714V105.142H45.5339V58.733Z" stroke="white"/>
<path d="M110.398 26.9099L89.2181 4.36853L102.456 1.7166L110.398 9.67239V26.9099Z" stroke="white"/>
<path d="M45.5339 24.258L66.714 4.36853L51.9774 0.429153L45.5339 7.08098V24.258Z" stroke="white"/>
<path d="M20.0539 49.3582L47.0374 22.7449L45.5339 7.08098C32.8617 19.7409 15.2856 35.8006 6.80878 45.3706C-1.66811 54.9406 -0.255351 63.5361 2.83518 65.3084L16.0803 71.9543C21.8198 74.1695 26.4947 78.2289 25.3443 82.8259C24.0557 87.9757 22.2944 89.2336 10.7391 89.2336L2.83518 105.356C7.69171 103.141 29.5903 95.6133 41.246 89.2336C52.9018 82.8534 46.1027 76.8277 41.246 74.6124C38.1555 73.2833 29.0606 69.5618 17.4049 65.3084C10.12 62.6499 15.1973 53.3459 20.0539 49.3582Z" fill="white" stroke="white"/>
<path d="M127.636 105.801C125.217 105.801 123.146 105.288 121.423 104.263C119.737 103.201 118.453 101.736 117.574 99.8683C116.694 98.0006 116.254 95.8218 116.254 93.3315V75.1493H124.502V92.6723C124.502 93.8074 124.722 94.8146 125.162 95.6935C125.638 96.536 126.298 97.1951 127.141 97.6711C127.984 98.147 128.937 98.3852 130 98.3852C131.1 98.3852 132.053 98.147 132.859 97.6711C133.703 97.1951 134.344 96.536 134.784 95.6935C135.26 94.8146 135.499 93.8074 135.499 92.6723V75.1493H143.746V105.142H136.048V99.2091L136.488 100.527C135.792 102.322 134.655 103.659 133.079 104.537C131.54 105.38 129.725 105.801 127.636 105.801ZM149.774 105.142V75.1493H157.472V81.0818L157.032 79.7635C157.729 77.9692 158.847 76.6509 160.386 75.8084C161.962 74.9295 163.795 74.4901 165.885 74.4901C168.158 74.4901 170.137 74.966 171.823 75.9183C173.546 76.8706 174.884 78.207 175.837 79.9283C176.79 81.6127 177.267 83.5902 177.267 85.8609V105.142H169.019V87.6187C169.019 86.4466 168.78 85.4399 168.304 84.5974C167.864 83.755 167.223 83.0958 166.38 82.6199C165.573 82.144 164.62 81.9058 163.52 81.9058C162.457 81.9058 161.504 82.144 160.661 82.6199C159.818 83.0958 159.158 83.755 158.682 84.5974C158.242 85.4399 158.022 86.4466 158.022 87.6187V105.142H149.774ZM182.69 105.142V75.1493H190.937V105.142H182.69ZM182.69 72.4576V64.218H190.937V72.4576H182.69Z" fill="white"/>
</g>
<defs>
<clipPath id="clip0_6_48">
<rect width="247" height="106" fill="white"/>
</clipPath>
</defs>
</svg>
