<svg width="502" height="247" viewBox="0 0 502 247" fill="none" xmlns="http://www.w3.org/2000/svg">
<path d="M106 136.859V84.3333L155.306 31.8077V146.128H207.694V31.8077L257 84.3333V245H207.694V195.564H155.306V245H106V136.859Z" fill="#B9B28A"/>
<path d="M257 62.7051L207.694 10.1795L238.51 4L257 22.5385V62.7051Z" fill="#B9B28A"/>
<path d="M106 56.5256L155.306 10.1795L121 1L106 16.5V56.5256Z" fill="#B9B28A"/>
<path d="M106 136.859V84.3333L155.306 31.8077V146.128H207.694V31.8077L257 84.3333V245H207.694V195.564H155.306V245H106V136.859Z" stroke="#B9B28A"/>
<path d="M257 62.7051L207.694 10.1795L238.51 4L257 22.5385V62.7051Z" stroke="#B9B28A"/>
<path d="M106 56.5256L155.306 10.1795L121 1L106 16.5V56.5256Z" stroke="#B9B28A"/>
<path d="M46.6841 115.014L109.5 53L106 16.5C76.5 46 35.584 83.4222 15.8504 105.722C-3.88325 128.022 -0.594438 148.051 6.60011 152.181L37.4339 167.667C50.7952 172.829 61.6779 182.288 59 193C56 205 51.8999 207.931 25 207.931L6.60011 245.5C17.9058 240.338 68.8844 222.797 96.0181 207.931C123.152 193.064 107.324 179.023 96.0181 173.861C88.8236 170.764 67.6511 162.092 40.5174 152.181C23.5588 145.986 35.3784 124.306 46.6841 115.014Z" fill="#B9B28A" stroke="#B9B28A"/>
<path d="M297.128 246.536C291.496 246.536 286.675 245.341 282.664 242.952C278.739 240.477 275.752 237.064 273.704 232.712C271.656 228.36 270.632 223.283 270.632 217.48V175.112H289.832V215.944C289.832 218.589 290.344 220.936 291.368 222.984C292.477 224.947 294.013 226.483 295.976 227.592C297.939 228.701 300.157 229.256 302.632 229.256C305.192 229.256 307.411 228.701 309.288 227.592C311.251 226.483 312.744 224.947 313.768 222.984C314.877 220.936 315.432 218.589 315.432 215.944V175.112H334.632V245H316.712V231.176L317.736 234.248C316.115 238.429 313.469 241.544 309.8 243.592C306.216 245.555 301.992 246.536 297.128 246.536ZM348.665 245V175.112H366.585V188.936L365.561 185.864C367.182 181.683 369.785 178.611 373.369 176.648C377.038 174.6 381.305 173.576 386.169 173.576C391.46 173.576 396.068 174.685 399.993 176.904C404.004 179.123 407.118 182.237 409.337 186.248C411.556 190.173 412.665 194.781 412.665 200.072V245H393.465V204.168C393.465 201.437 392.91 199.091 391.801 197.128C390.777 195.165 389.284 193.629 387.321 192.52C385.444 191.411 383.225 190.856 380.665 190.856C378.19 190.856 375.972 191.411 374.009 192.52C372.046 193.629 370.51 195.165 369.401 197.128C368.377 199.091 367.865 201.437 367.865 204.168V245H348.665ZM425.29 245V175.112H444.49V245H425.29ZM425.29 168.84V149.64H444.49V168.84H425.29Z" fill="#B9B28A"/>
</svg>
