<svg width="47" height="47" viewBox="0 0 47 47" fill="none" xmlns="http://www.w3.org/2000/svg">
<g clip-path="url(#clip0_6_43)">
<path fill-rule="evenodd" clip-rule="evenodd" d="M23.5 23.5C18.2912 23.5 14.0553 19.2841 14.0553 14.1C14.0553 8.91586 18.2912 4.69996 23.5 4.69996C28.7088 4.69996 32.9448 8.91586 32.9448 14.1C32.9448 19.2841 28.7088 23.5 23.5 23.5ZM32.3734 25.0815C36.1206 22.0805 38.3047 17.2277 37.5019 11.9143C36.5692 5.75029 31.4171 0.817746 25.1977 0.0986456C16.6148 -0.895404 9.33288 5.75511 9.33288 14.1C9.33288 18.5415 11.4013 22.4988 14.6267 25.0815C6.7025 28.0448 0.917588 35.0032 0.0108901 44.3938C-0.121335 45.7826 0.967183 47 2.36973 47C3.57157 47 4.59634 46.0976 4.70259 44.9061C5.64943 34.4181 13.7176 28.2 23.5 28.2C33.2824 28.2 41.3506 34.4181 42.2974 44.9061C42.4037 46.0976 43.4284 47 44.6303 47C46.0328 47 47.1213 45.7826 46.9891 44.3938C46.0824 35.0032 40.2975 28.0448 32.3734 25.0815Z" fill="#594C1A"/>
</g>
<defs>
<clipPath id="clip0_6_43">
<rect width="47" height="47" fill="white"/>
</clipPath>
</defs>
</svg>
